<?xml version="1.0" encoding="utf-8"?>
<!-- Generator: Adobe Illustrator 24.0.0, SVG Export Plug-In . SVG Version: 6.00 Build 0)  -->
<svg version="1.1" id="Layer_1" xmlns="http://www.w3.org/2000/svg" xmlns:xlink="http://www.w3.org/1999/xlink" x="0px" y="0px"
	 viewBox="0 0 24 24" style="enable-background:new 0 0 24 24;" xml:space="preserve">
<style type="text/css">
	.st0{fill:#637381;}
	.st1{opacity:0.4;}
</style>
<path class="st0" d="M20.96,6.05c-0.05,0.99-0.99,1.36-1.72,0.69c-0.33-0.3-0.73-0.68-1.2-1.14c-1.07,0.97-2.72,2.48-4.69,4.31
	c-0.52,0.48-1.36,0.43-1.81-0.12l0,0c-0.89-1.06-1.78-2.12-2.71-3.15c-1.08,0.79-3.02,2.31-4.95,4.23c-0.49,0.49-1.28,0.49-1.77,0
	c-0.49-0.49-0.49-1.28,0-1.77C4.01,7.23,6.08,5.45,8.3,3.96l0,0c0,0,0,0,0,0C8.8,3.63,9.46,3.7,9.88,4.12
	c0.97,0.97,1.84,2.03,2.73,3.08c1.51-1.39,2.77-2.55,3.66-3.36c-0.4-0.42-0.74-0.77-1.01-1.07c-0.67-0.73-0.3-1.67,0.69-1.72
	c1.26-0.06,2.55-0.1,3.8,0.13c0.56,0.1,0.97,0.52,1.08,1.08C21.06,3.5,21.02,4.79,20.96,6.05z"/>
<g class="st1">
	<path class="st0" d="M2.61,22.98c-0.84-0.02-1.47-0.52-1.54-1.36C1.03,21.13,1,20.44,1,19.5s0.03-1.63,0.07-2.13
		c0.07-0.83,0.7-1.34,1.54-1.36C2.98,16.01,3.43,16,4,16s1.02,0.01,1.39,0.02c0.84,0.02,1.47,0.52,1.54,1.36
		C6.97,17.87,7,18.56,7,19.5s-0.03,1.63-0.07,2.13c-0.07,0.83-0.7,1.34-1.54,1.36C5.02,22.99,4.57,23,4,23S2.98,22.99,2.61,22.98z"
		/>
	<path class="st0" d="M18.85,22.98c-0.97-0.04-1.66-0.72-1.72-1.7C17.06,20.27,17,18.63,17,16s0.06-4.27,0.12-5.28
		c0.06-0.97,0.75-1.66,1.72-1.7C19.17,9.01,19.55,9,20,9s0.83,0.01,1.15,0.02c0.97,0.04,1.66,0.72,1.72,1.7
		C22.94,11.73,23,13.37,23,16s-0.06,4.27-0.12,5.28c-0.06,0.97-0.75,1.66-1.72,1.7C20.83,22.99,20.45,23,20,23
		S19.17,22.99,18.85,22.98z"/>
	<path class="st0" d="M10.78,22.98c-0.93-0.03-1.61-0.64-1.68-1.57C9.04,20.68,9,19.59,9,18s0.04-2.68,0.09-3.41
		c0.07-0.93,0.75-1.54,1.68-1.57C11.11,13.01,11.52,13,12,13s0.89,0.01,1.22,0.02c0.93,0.03,1.61,0.64,1.68,1.57
		C14.96,15.32,15,16.41,15,18s-0.04,2.68-0.09,3.41c-0.07,0.93-0.75,1.54-1.68,1.57C12.89,22.99,12.48,23,12,23
		S11.11,22.99,10.78,22.98z"/>
</g>
</svg>
