<?xml version="1.0" encoding="utf-8"?>
<!-- Generator: Adobe Illustrator 24.0.0, SVG Export Plug-In . SVG Version: 6.00 Build 0)  -->
<svg version="1.1" id="Layer_1" xmlns="http://www.w3.org/2000/svg" xmlns:xlink="http://www.w3.org/1999/xlink" x="0px" y="0px"
	 viewBox="0 0 24 24" style="enable-background:new 0 0 24 24;" xml:space="preserve">
<style type="text/css">
	.st0{opacity:0.4;fill:#637381;enable-background:new    ;}
	.st1{fill:#637381;}
</style>
<path class="st0" d="M0.34,21.19c0.11,1.03,0.78,1.85,1.8,2.06C3.73,23.59,6.75,24,12,24s8.27-0.41,9.87-0.75
	c1.01-0.22,1.69-1.03,1.79-2.06C23.82,19.66,24,16.86,24,12c0-4.86-0.18-7.66-0.34-9.19c-0.11-1.03-0.78-1.85-1.8-2.06
	C20.27,0.41,17.25,0,12,0S3.73,0.41,2.13,0.75c-1.01,0.22-1.69,1.03-1.8,2.06C0.18,4.34,0,7.14,0,12C0,16.86,0.18,19.66,0.34,21.19z
	"/>
<ellipse class="st1" cx="12" cy="7.43" rx="6.79" ry="6.34"/>
<ellipse class="st1" cx="5.21" cy="18.28" rx="3.66" ry="3.41"/>
<ellipse class="st1" cx="19.94" cy="15.41" rx="1.66" ry="1.55"/>
</svg>
